<svg width="40" height="40" fill="none" xmlns="http://www.w3.org/2000/svg">
  <path fill-rule="evenodd" clip-rule="evenodd" d="M21.723 6.913 20 0l-1.723 6.913L14.824.68l.125 7.124L10 2.679l1.964 6.849-6.106-3.67 3.67 6.106L2.679 10l5.126 4.949-7.124-.125 6.232 3.453L0 20l6.913 1.723L.68 25.176l7.124-.125L2.679 30l6.849-1.964-3.67 6.106 6.106-3.67L10 37.321l4.949-5.126-.125 7.123 3.453-6.23L20 40l1.723-6.913 3.453 6.231-.125-7.123L30 37.321l-1.964-6.849 6.106 3.67-3.67-6.106L37.321 30l-5.126-4.949 7.123.125-6.23-3.453L40 20l-6.913-1.723 6.231-3.453-7.123.125L37.321 10l-6.849 1.964 3.67-6.106-6.106 3.67L30 2.679l-4.949 5.126.125-7.124-3.453 6.232ZM20 31c6.075 0 11-4.925 11-11S26.075 9 20 9 9 13.925 9 20s4.925 11 11 11Z" fill="#D0B167"/>
</svg>
